<svg width="20" height="20" viewBox="0 0 20 20" fill="none" xmlns="http://www.w3.org/2000/svg">
<path d="M2.55469 6.00952L10 10.0845L17.4453 6.00952" stroke="#737373" stroke-width="1.5" stroke-linecap="round" stroke-linejoin="round"/>
<path d="M10.3 1.95317L17.175 5.71723C17.2732 5.77095 17.3551 5.85003 17.4123 5.94623C17.4694 6.04242 17.4998 6.15221 17.5 6.26409V13.736C17.4998 13.8479 17.4694 13.9577 17.4123 14.0538C17.3551 14.1501 17.2732 14.2292 17.175 14.2828L10.3 18.0469C10.208 18.0973 10.1049 18.1237 10 18.1237C9.89513 18.1237 9.792 18.0973 9.7 18.0469L2.825 14.2828C2.72683 14.2292 2.64488 14.1501 2.58772 14.0538C2.53055 13.9577 2.50026 13.8479 2.5 13.736V6.26409C2.50026 6.15221 2.53055 6.04242 2.58772 5.94623C2.64488 5.85003 2.72683 5.77095 2.825 5.71723L9.7 1.95317C9.792 1.90284 9.89513 1.87646 10 1.87646C10.1049 1.87646 10.208 1.90284 10.3 1.95317Z" stroke="#737373" stroke-width="1.5" stroke-linecap="round" stroke-linejoin="round"/>
<path d="M10 10.0852V18.1251" stroke="#737373" stroke-width="1.5" stroke-linecap="round" stroke-linejoin="round"/>
</svg>
