<svg width="32" height="32" viewBox="0 0 32 32" fill="none" xmlns="http://www.w3.org/2000/svg">
<g clip-path="url(#clip0_8899_29469)">
<path d="M6 5L26 27" stroke="#343330" stroke-width="1.5" stroke-linecap="round" stroke-linejoin="round"/>
<path d="M19.3637 19.6998C18.3824 20.5919 17.0869 21.0577 15.7622 20.9946C14.4375 20.9316 13.1921 20.3449 12.3 19.3636C11.4079 18.3823 10.9421 17.0868 11.0052 15.762C11.0682 14.4373 11.6549 13.1919 12.6362 12.2998" stroke="#343330" stroke-width="1.5" stroke-linecap="round" stroke-linejoin="round"/>
<path d="M16.9412 11.0889C18.0042 11.2924 18.9724 11.8354 19.7005 12.6363C20.4285 13.4371 20.877 14.4526 20.9787 15.5301" stroke="#343330" stroke-width="1.5" stroke-linecap="round" stroke-linejoin="round"/>
<path d="M26.0763 21.1375C28.8013 18.6975 30 16 30 16C30 16 26 7.00001 16 7.00001C15.1341 6.99883 14.2695 7.06907 13.415 7.21001" stroke="#343330" stroke-width="1.5" stroke-linecap="round" stroke-linejoin="round"/>
<path d="M9.25 8.5752C4.15375 11.1552 2 16.0002 2 16.0002C2 16.0002 6 25.0002 16 25.0002C18.3431 25.0186 20.657 24.4787 22.75 23.4252" stroke="#343330" stroke-width="1.5" stroke-linecap="round" stroke-linejoin="round"/>
</g>
<defs>
<clipPath id="clip0_8899_29469">
<rect width="32" height="32" fill="white"/>
</clipPath>
</defs>
</svg>
