<svg width="20" height="20" viewBox="0 0 20 20" fill="none" xmlns="http://www.w3.org/2000/svg">
<g clip-path="url(#clip0_4979_8288)">
<path d="M5.00019 16.875L2.70957 12.9688C2.50563 12.6101 2.45185 12.1853 2.55996 11.7871C2.66807 11.3889 2.92928 11.0496 3.28661 10.8433C3.64393 10.637 4.06835 10.5804 4.46725 10.6859C4.86615 10.7913 5.20715 11.0503 5.41582 11.4062L6.87518 13.75V5.3125C6.87518 4.8981 7.03981 4.50067 7.33281 4.20764C7.62587 3.91462 8.02331 3.75 8.43768 3.75C8.85212 3.75 9.2495 3.91462 9.54256 4.20764C9.83556 4.50067 10.0002 4.8981 10.0002 5.3125V9.6875C10.0002 9.27313 10.1648 8.87569 10.4578 8.58262C10.7509 8.28962 11.1483 8.125 11.5627 8.125C11.9771 8.125 12.3745 8.28962 12.6676 8.58262C12.9606 8.87569 13.1252 9.27313 13.1252 9.6875V10.9375C13.1252 10.5231 13.2898 10.1257 13.5828 9.83262C13.8759 9.53962 14.2733 9.375 14.6877 9.375C15.1021 9.375 15.4995 9.53962 15.7926 9.83262C16.0856 10.1257 16.2502 10.5231 16.2502 10.9375V13.75C16.2502 15.625 15.6252 16.875 15.6252 16.875" stroke="#737373" stroke-width="1.5" stroke-linecap="round" stroke-linejoin="round"/>
<path d="M16.875 1.875L19.375 4.375L16.875 6.875" stroke="#737373" stroke-width="1.5" stroke-linecap="round" stroke-linejoin="round"/>
<path d="M13.75 4.375H19.375" stroke="#737373" stroke-width="1.5" stroke-linecap="round" stroke-linejoin="round"/>
</g>
<defs>

</defs>
</svg>
