<svg width="20" height="20" viewBox="0 0 20 20" fill="none" xmlns="http://www.w3.org/2000/svg">
<path d="M4.375 10.625C5.70108 10.625 6.97288 11.1518 7.91056 12.0894C8.84819 13.0271 9.375 14.2989 9.375 15.625" stroke="#737373" stroke-width="1.6" stroke-linecap="round" stroke-linejoin="round"/>
<path d="M4.375 6.875C6.69563 6.875 8.92125 7.79688 10.5622 9.43781C12.2031 11.0788 13.125 13.3044 13.125 15.625" stroke="#737373" stroke-width="1.6" stroke-linecap="round" stroke-linejoin="round"/>
<path d="M4.375 3.125C6.01653 3.125 7.642 3.44832 9.15856 4.07651C10.6751 4.70469 12.0531 5.62543 13.2138 6.78619C14.3746 7.94687 15.2953 9.32488 15.9235 10.8414C16.5517 12.358 16.875 13.9835 16.875 15.625" stroke="#737373" stroke-width="1.6" stroke-linecap="round" stroke-linejoin="round"/>
<path d="M4.68801 15.3125L4.68751 15.3126L4.68701 15.3125H4.68801Z" stroke="#737373" stroke-width="2.176" stroke-linejoin="round"/>
</svg>
