<svg width="32" height="32" viewBox="0 0 32 32" fill="none" xmlns="http://www.w3.org/2000/svg">
<g clip-path="url(#clip0_8899_19438)">
<path d="M6 5L26 27" stroke="#343330" stroke-width="1.5" stroke-linecap="round" stroke-linejoin="round"/>
<path d="M10 11V21" stroke="#343330" stroke-width="1.5" stroke-linecap="round" stroke-linejoin="round"/>
<path d="M24 13.3584C24.6433 14.0888 24.9982 15.0288 24.9982 16.0021C24.9982 16.9755 24.6433 17.9155 24 18.6459" stroke="#343330" stroke-width="1.5" stroke-linecap="round" stroke-linejoin="round"/>
<path d="M19 19.3004V28.0004L10 21.0004H4C3.73478 21.0004 3.48043 20.895 3.29289 20.7075C3.10536 20.52 3 20.2656 3 20.0004V12.0004C3 11.7352 3.10536 11.4808 3.29289 11.2933C3.48043 11.1057 3.73478 11.0004 4 11.0004H10L10.8525 10.3379" stroke="#343330" stroke-width="1.5" stroke-linecap="round" stroke-linejoin="round"/>
<path d="M14.0188 7.87375L19 4V13.3538" stroke="#343330" stroke-width="1.5" stroke-linecap="round" stroke-linejoin="round"/>
<path d="M27.7087 10C29.1846 11.6501 30.0005 13.7862 30.0005 16C30.0005 18.2138 29.1846 20.3499 27.7087 22" stroke="#343330" stroke-width="1.5" stroke-linecap="round" stroke-linejoin="round"/>
</g>
<defs>
<clipPath id="clip0_8899_19438">
<rect width="32" height="32" fill="white"/>
</clipPath>
</defs>
</svg>
